# MagicaVoxel @ ephtracy

# material
mtllib a792_BasicGuard_forearm_R.mtl
usemtl palette

# normals
vn -1 0 0
vn 1 0 0
vn 0 0 1
vn 0 0 -1
vn 0 -1 0
vn 0 1 0

# texcoords
vt 0.0644531 0.5
vt 0.849609 0.5
vt 0.908203 0.5
vt 0.912109 0.5
vt 0.962891 0.5

# verts
v -1.5 0 2
v -1.5 0 -1
v -1.5 4 2
v -1.5 4 1
v -1.5 4 -1
v -1.5 5 1
v -1.5 5 -1
v -1.5 8 1
v -1.5 8 -1
v -1.5 12 -1
v -1.5 12 -2
v -1.5 13 1
v -1.5 13 -2
v 0.5 0 2
v 0.5 0 -1
v 0.5 1 2
v 0.5 1 -1
v 0.5 4 1
v 0.5 4 -1
v 0.5 5 1
v 0.5 5 -1
v 0.5 8 1
v 0.5 8 -1
v 0.5 12 -1
v 0.5 12 -2
v 0.5 13 1
v 0.5 13 -2
v 1.5 1 2
v 1.5 1 -1
v 1.5 4 2
v 1.5 4 -1
v -1.5 0 2
v -1.5 4 2
v 0.5 0 2
v 0.5 1 2
v 1.5 1 2
v 1.5 4 2
v -1.5 4 1
v -1.5 5 1
v -1.5 8 1
v -1.5 13 1
v 0.5 4 1
v 0.5 5 1
v 0.5 8 1
v 0.5 13 1
v -1.5 0 -1
v -1.5 4 -1
v -1.5 5 -1
v -1.5 8 -1
v -1.5 12 -1
v 0.5 0 -1
v 0.5 1 -1
v 0.5 4 -1
v 0.5 5 -1
v 0.5 8 -1
v 0.5 12 -1
v 1.5 1 -1
v 1.5 4 -1
v -1.5 12 -2
v -1.5 13 -2
v 0.5 12 -2
v 0.5 13 -2
v -1.5 0 2
v 0.5 0 2
v -1.5 0 -1
v 0.5 0 -1
v 0.5 1 2
v 1.5 1 2
v 0.5 1 -1
v 1.5 1 -1
v -1.5 12 -1
v 0.5 12 -1
v -1.5 12 -2
v 0.5 12 -2
v -1.5 4 2
v 1.5 4 2
v -1.5 4 1
v 0.5 4 1
v 0.5 4 -1
v 1.5 4 -1
v -1.5 13 1
v 0.5 13 1
v -1.5 13 -2
v 0.5 13 -2

# faces
f 3/3/1 2/3/1 1/3/1
f 4/3/1 2/3/1 3/3/1
f 5/3/1 2/3/1 4/3/1
f 6/4/1 5/4/1 4/4/1
f 7/4/1 5/4/1 6/4/1
f 8/2/1 7/2/1 6/2/1
f 9/2/1 7/2/1 8/2/1
f 10/3/1 9/3/1 8/3/1
f 12/3/1 10/3/1 8/3/1
f 12/3/1 11/3/1 10/3/1
f 13/3/1 11/3/1 12/3/1
f 14/3/2 15/3/2 16/3/2
f 16/3/2 15/3/2 17/3/2
f 18/4/2 19/4/2 20/4/2
f 20/4/2 19/4/2 21/4/2
f 20/2/2 21/2/2 22/2/2
f 22/2/2 21/2/2 23/2/2
f 22/3/2 23/3/2 24/3/2
f 22/3/2 24/3/2 26/3/2
f 24/3/2 25/3/2 26/3/2
f 26/3/2 25/3/2 27/3/2
f 28/3/2 29/3/2 30/3/2
f 30/3/2 29/3/2 31/3/2
f 34/3/3 33/3/3 32/3/3
f 35/3/3 33/3/3 34/3/3
f 36/3/3 33/3/3 35/3/3
f 37/3/3 33/3/3 36/3/3
f 42/4/3 39/4/3 38/4/3
f 43/2/3 40/2/3 39/2/3
f 43/4/3 39/4/3 42/4/3
f 44/3/3 41/3/3 40/3/3
f 44/2/3 40/2/3 43/2/3
f 45/3/3 41/3/3 44/3/3
f 46/3/4 47/3/4 51/3/4
f 51/3/4 47/3/4 52/3/4
f 47/4/4 48/4/4 53/4/4
f 52/3/4 47/3/4 53/3/4
f 48/2/4 49/2/4 54/2/4
f 53/4/4 48/4/4 54/4/4
f 49/3/4 50/3/4 55/3/4
f 54/2/4 49/2/4 55/2/4
f 55/3/4 50/3/4 56/3/4
f 52/3/4 53/3/4 57/3/4
f 57/3/4 53/3/4 58/3/4
f 59/3/4 60/3/4 61/3/4
f 61/3/4 60/3/4 62/3/4
f 65/3/5 64/3/5 63/3/5
f 66/3/5 64/3/5 65/3/5
f 69/3/5 68/3/5 67/3/5
f 70/3/5 68/3/5 69/3/5
f 73/3/5 72/3/5 71/3/5
f 74/3/5 72/3/5 73/3/5
f 75/3/6 76/3/6 77/3/6
f 77/3/6 76/3/6 78/3/6
f 78/3/6 76/3/6 79/3/6
f 79/3/6 76/3/6 80/3/6
f 81/3/6 82/3/6 83/3/6
f 83/3/6 82/3/6 84/3/6
