# MagicaVoxel @ ephtracy

# material
mtllib a792_BasicGuard_Shin_R.mtl
usemtl palette

# normals
vn -1 0 0
vn 1 0 0
vn 0 0 1
vn 0 0 -1
vn 0 -1 0
vn 0 1 0

# texcoords
vt 0.0644531 0.5
vt 0.849609 0.5
vt 0.908203 0.5
vt 0.912109 0.5

# verts
v -2 0 3
v -2 0 -4
v -2 1 3
v -2 1 -4
v -1 0 4
v -1 0 3
v -1 0 -4
v -1 0 -5
v -1 1 4
v -1 1 3
v -1 1 -2
v -1 1 -4
v -1 1 -5
v -1 2 -2
v -1 2 -3
v -1 3 -2
v -1 3 -3
v -1 3 -4
v -1 3 -5
v -1 10 -2
v -1 10 -3
v -1 10 -4
v -1 11 -1
v -1 11 -2
v -1 11 -3
v -1 12 -2
v -1 12 -5
v -1 13 -1
v -1 13 -2
v 0 0 5
v 0 0 4
v 0 1 5
v 0 1 4
v 0 2 -4
v 0 2 -5
v 0 3 -4
v 0 3 -5
v 1 2 -4
v 1 2 -5
v 1 3 -4
v 1 3 -5
v 2 0 5
v 2 0 -5
v 2 1 5
v 2 1 -2
v 2 1 -4
v 2 1 -5
v 2 2 -2
v 2 2 -3
v 2 3 -2
v 2 3 -3
v 2 3 -4
v 2 3 -5
v 2 10 -2
v 2 10 -3
v 2 10 -4
v 2 11 -1
v 2 11 -2
v 2 11 -3
v 2 12 -2
v 2 12 -5
v 2 13 -1
v 2 13 -2
v 0 0 5
v 0 1 5
v 2 0 5
v 2 1 5
v -1 0 4
v -1 1 4
v 0 0 4
v 0 1 4
v -2 0 3
v -2 1 3
v -1 0 3
v -1 1 3
v -1 11 -1
v -1 13 -1
v 2 11 -1
v 2 13 -1
v -1 1 -2
v -1 2 -2
v -1 3 -2
v -1 10 -2
v -1 11 -2
v 0 3 -2
v 0 10 -2
v 1 3 -2
v 1 10 -2
v 2 1 -2
v 2 2 -2
v 2 3 -2
v 2 10 -2
v 2 11 -2
v -1 12 -2
v -1 13 -2
v 2 12 -2
v 2 13 -2
v -2 0 -4
v -2 1 -4
v -1 0 -4
v -1 1 -4
v -1 3 -4
v 0 2 -4
v 0 3 -4
v 1 2 -4
v 1 3 -4
v 2 1 -4
v 2 3 -4
v -1 0 -5
v -1 1 -5
v -1 3 -5
v -1 12 -5
v 0 2 -5
v 0 3 -5
v 1 2 -5
v 1 3 -5
v 2 0 -5
v 2 1 -5
v 2 3 -5
v 2 12 -5
v 0 0 5
v 2 0 5
v -1 0 4
v 0 0 4
v -2 0 3
v -1 0 3
v -2 0 -4
v -1 0 -4
v -1 0 -5
v 2 0 -5
v 0 2 -4
v 1 2 -4
v 0 2 -5
v 1 2 -5
v -1 3 -4
v 0 3 -4
v 1 3 -4
v 2 3 -4
v -1 3 -5
v 0 3 -5
v 1 3 -5
v 2 3 -5
v -1 11 -1
v 2 11 -1
v -1 11 -2
v 2 11 -2
v 0 1 5
v 2 1 5
v -1 1 4
v 0 1 4
v -2 1 3
v -1 1 3
v -1 1 -2
v 2 1 -2
v -2 1 -4
v -1 1 -4
v 2 1 -4
v -1 1 -5
v 2 1 -5
v -1 12 -2
v 2 12 -2
v -1 12 -5
v 2 12 -5
v -1 13 -1
v 2 13 -1
v -1 13 -2
v 2 13 -2

# faces
f 3/3/1 2/3/1 1/3/1
f 4/3/1 2/3/1 3/3/1
f 9/3/1 6/3/1 5/3/1
f 10/3/1 6/3/1 9/3/1
f 12/3/1 8/3/1 7/3/1
f 13/3/1 8/3/1 12/3/1
f 14/3/1 12/3/1 11/3/1
f 15/3/1 12/3/1 14/3/1
f 16/2/1 15/2/1 14/2/1
f 17/3/1 12/3/1 15/3/1
f 17/2/1 15/2/1 16/2/1
f 18/3/1 12/3/1 17/3/1
f 20/4/1 17/4/1 16/4/1
f 21/2/1 18/2/1 17/2/1
f 21/4/1 17/4/1 20/4/1
f 22/3/1 19/3/1 18/3/1
f 22/2/1 18/2/1 21/2/1
f 24/2/1 21/2/1 20/2/1
f 25/3/1 22/3/1 21/3/1
f 25/2/1 21/2/1 24/2/1
f 26/3/1 24/3/1 23/3/1
f 26/3/1 25/3/1 24/3/1
f 27/3/1 19/3/1 22/3/1
f 27/3/1 25/3/1 26/3/1
f 27/3/1 22/3/1 25/3/1
f 28/3/1 26/3/1 23/3/1
f 29/3/1 26/3/1 28/3/1
f 32/3/1 31/3/1 30/3/1
f 33/3/1 31/3/1 32/3/1
f 36/3/1 35/3/1 34/3/1
f 37/3/1 35/3/1 36/3/1
f 38/3/2 39/3/2 40/3/2
f 40/3/2 39/3/2 41/3/2
f 42/3/2 43/3/2 44/3/2
f 44/3/2 43/3/2 45/3/2
f 45/3/2 43/3/2 46/3/2
f 46/3/2 43/3/2 47/3/2
f 45/3/2 46/3/2 48/3/2
f 48/3/2 46/3/2 49/3/2
f 48/2/2 49/2/2 50/2/2
f 49/3/2 46/3/2 51/3/2
f 50/2/2 49/2/2 51/2/2
f 51/3/2 46/3/2 52/3/2
f 50/4/2 51/4/2 54/4/2
f 51/2/2 52/2/2 55/2/2
f 54/4/2 51/4/2 55/4/2
f 52/3/2 53/3/2 56/3/2
f 55/2/2 52/2/2 56/2/2
f 54/2/2 55/2/2 58/2/2
f 55/3/2 56/3/2 59/3/2
f 58/2/2 55/2/2 59/2/2
f 57/3/2 58/3/2 60/3/2
f 58/3/2 59/3/2 60/3/2
f 56/3/2 53/3/2 61/3/2
f 60/3/2 59/3/2 61/3/2
f 59/3/2 56/3/2 61/3/2
f 57/3/2 60/3/2 62/3/2
f 62/3/2 60/3/2 63/3/2
f 66/3/3 65/3/3 64/3/3
f 67/3/3 65/3/3 66/3/3
f 70/3/3 69/3/3 68/3/3
f 71/3/3 69/3/3 70/3/3
f 74/3/3 73/3/3 72/3/3
f 75/3/3 73/3/3 74/3/3
f 78/3/3 77/3/3 76/3/3
f 79/3/3 77/3/3 78/3/3
f 85/2/3 82/2/3 81/2/3
f 85/4/3 83/4/3 82/4/3
f 86/2/3 84/2/3 83/2/3
f 86/4/3 83/4/3 85/4/3
f 87/2/3 85/2/3 81/2/3
f 87/2/3 86/2/3 85/2/3
f 88/2/3 84/2/3 86/2/3
f 88/2/3 86/2/3 87/2/3
f 89/3/3 81/3/3 80/3/3
f 90/2/3 87/2/3 81/2/3
f 90/3/3 81/3/3 89/3/3
f 91/4/3 88/4/3 87/4/3
f 91/2/3 87/2/3 90/2/3
f 92/2/3 84/2/3 88/2/3
f 92/4/3 88/4/3 91/4/3
f 93/2/3 84/2/3 92/2/3
f 94/3/4 95/3/4 96/3/4
f 96/3/4 95/3/4 97/3/4
f 98/3/4 99/3/4 100/3/4
f 100/3/4 99/3/4 101/3/4
f 101/3/4 102/3/4 103/3/4
f 103/3/4 102/3/4 104/3/4
f 101/3/4 103/3/4 105/3/4
f 101/3/4 105/3/4 107/3/4
f 105/3/4 106/3/4 107/3/4
f 107/3/4 106/3/4 108/3/4
f 111/3/4 112/3/4 114/3/4
f 113/3/4 114/3/4 115/3/4
f 114/3/4 112/3/4 116/3/4
f 115/3/4 114/3/4 116/3/4
f 109/3/4 110/3/4 117/3/4
f 117/3/4 110/3/4 118/3/4
f 116/3/4 112/3/4 119/3/4
f 119/3/4 112/3/4 120/3/4
f 124/3/5 122/3/5 121/3/5
f 126/3/5 124/3/5 123/3/5
f 127/3/5 126/3/5 125/3/5
f 128/3/5 124/3/5 126/3/5
f 128/3/5 126/3/5 127/3/5
f 129/3/5 124/3/5 128/3/5
f 130/3/5 122/3/5 124/3/5
f 130/3/5 124/3/5 129/3/5
f 133/3/5 132/3/5 131/3/5
f 134/3/5 132/3/5 133/3/5
f 139/3/5 136/3/5 135/3/5
f 140/3/5 136/3/5 139/3/5
f 141/3/5 138/3/5 137/3/5
f 142/3/5 138/3/5 141/3/5
f 145/3/5 144/3/5 143/3/5
f 146/3/5 144/3/5 145/3/5
f 147/3/6 148/3/6 150/3/6
f 149/3/6 150/3/6 152/3/6
f 152/3/6 150/3/6 153/3/6
f 151/3/6 152/3/6 153/3/6
f 150/3/6 148/3/6 154/3/6
f 153/3/6 150/3/6 154/3/6
f 151/3/6 153/3/6 155/3/6
f 155/3/6 153/3/6 156/3/6
f 156/3/6 157/3/6 158/3/6
f 158/3/6 157/3/6 159/3/6
f 160/3/6 161/3/6 162/3/6
f 162/3/6 161/3/6 163/3/6
f 164/3/6 165/3/6 166/3/6
f 166/3/6 165/3/6 167/3/6
