# MagicaVoxel @ ephtracy

# material
mtllib a792_BasicGuard_Thigh_R.mtl
usemtl palette

# normals
vn -1 0 0
vn 1 0 0
vn 0 0 1
vn 0 0 -1
vn 0 -1 0
vn 0 1 0

# texcoords
vt 0.0644531 0.5
vt 0.849609 0.5
vt 0.908203 0.5
vt 0.912109 0.5
vt 0.962891 0.5

# verts
v -2 1 2
v -2 1 -2
v -2 2 2
v -2 2 1
v -2 3 2
v -2 3 1
v -2 9 2
v -2 9 1
v -2 10 2
v -2 10 1
v -2 11 2
v -2 11 -2
v -1 0 1
v -1 0 -2
v -1 1 1
v -1 1 -2
v 2 0 1
v 2 0 -2
v 2 1 2
v 2 1 1
v 2 2 2
v 2 2 1
v 2 3 2
v 2 3 1
v 2 9 2
v 2 9 1
v 2 10 2
v 2 10 1
v 2 11 2
v 2 11 -2
v -2 1 2
v -2 2 2
v -2 3 2
v -2 9 2
v -2 10 2
v -2 11 2
v 2 1 2
v 2 2 2
v 2 3 2
v 2 9 2
v 2 10 2
v 2 11 2
v -1 0 1
v -1 1 1
v 2 0 1
v 2 1 1
v -2 1 -2
v -2 11 -2
v -1 0 -2
v -1 1 -2
v 2 0 -2
v 2 11 -2
v -1 0 1
v 2 0 1
v -1 0 -2
v 2 0 -2
v -2 1 2
v 2 1 2
v -1 1 1
v 2 1 1
v -2 1 -2
v -1 1 -2
v -2 11 2
v 2 11 2
v -2 11 -2
v 2 11 -2

# faces
f 3/3/1 2/3/1 1/3/1
f 4/3/1 2/3/1 3/3/1
f 5/2/1 4/2/1 3/2/1
f 6/3/1 2/3/1 4/3/1
f 6/2/1 4/2/1 5/2/1
f 7/4/1 6/4/1 5/4/1
f 8/3/1 2/3/1 6/3/1
f 8/4/1 6/4/1 7/4/1
f 9/2/1 8/2/1 7/2/1
f 10/3/1 2/3/1 8/3/1
f 10/2/1 8/2/1 9/2/1
f 11/3/1 10/3/1 9/3/1
f 12/3/1 2/3/1 10/3/1
f 12/3/1 10/3/1 11/3/1
f 15/3/1 14/3/1 13/3/1
f 16/3/1 14/3/1 15/3/1
f 17/3/2 18/3/2 20/3/2
f 19/3/2 20/3/2 21/3/2
f 20/3/2 18/3/2 22/3/2
f 21/3/2 20/3/2 22/3/2
f 21/2/2 22/2/2 23/2/2
f 22/3/2 18/3/2 24/3/2
f 23/2/2 22/2/2 24/2/2
f 23/4/2 24/4/2 25/4/2
f 24/3/2 18/3/2 26/3/2
f 25/4/2 24/4/2 26/4/2
f 25/2/2 26/2/2 27/2/2
f 26/3/2 18/3/2 28/3/2
f 27/2/2 26/2/2 28/2/2
f 27/3/2 28/3/2 29/3/2
f 28/3/2 18/3/2 30/3/2
f 29/3/2 28/3/2 30/3/2
f 37/3/3 32/3/3 31/3/3
f 38/2/3 33/2/3 32/2/3
f 38/3/3 32/3/3 37/3/3
f 39/4/3 34/4/3 33/4/3
f 39/2/3 33/2/3 38/2/3
f 40/2/3 35/2/3 34/2/3
f 40/4/3 34/4/3 39/4/3
f 41/3/3 36/3/3 35/3/3
f 41/2/3 35/2/3 40/2/3
f 42/3/3 36/3/3 41/3/3
f 45/3/3 44/3/3 43/3/3
f 46/3/3 44/3/3 45/3/3
f 47/3/4 48/3/4 50/3/4
f 49/3/4 50/3/4 51/3/4
f 50/3/4 48/3/4 52/3/4
f 51/3/4 50/3/4 52/3/4
f 55/3/5 54/3/5 53/3/5
f 56/3/5 54/3/5 55/3/5
f 59/3/5 58/3/5 57/3/5
f 60/3/5 58/3/5 59/3/5
f 61/3/5 59/3/5 57/3/5
f 62/3/5 59/3/5 61/3/5
f 63/3/6 64/3/6 65/3/6
f 65/3/6 64/3/6 66/3/6
